<svg width="16" height="16" viewBox="0 0 16 16" fill="none" xmlns="http://www.w3.org/2000/svg">
<path fill-rule="evenodd" clip-rule="evenodd" d="M0.666992 7.99984C0.666992 3.94975 3.95024 0.666504 8.00033 0.666504C12.0504 0.666504 15.3337 3.94975 15.3337 7.99984C15.3337 12.0499 12.0504 15.3332 8.00033 15.3332C3.95024 15.3332 0.666992 12.0499 0.666992 7.99984Z" fill="#08AD36"/>
<path fill-rule="evenodd" clip-rule="evenodd" d="M11.5408 5.36182C11.8011 5.62217 11.8011 6.04428 11.5408 6.30463L7.40272 10.638C7.14237 10.8983 6.72026 10.8983 6.45991 10.638L4.45991 8.63796C4.19956 8.37761 4.19956 7.9555 4.45991 7.69515C4.72026 7.4348 5.14237 7.4348 5.40272 7.69515L6.93132 9.22375L10.598 5.36182C10.8583 5.10147 11.2804 5.10147 11.5408 5.36182Z" fill="white"/>
</svg>
