<svg width="39" height="34" viewBox="0 0 39 34" fill="none" xmlns="http://www.w3.org/2000/svg">
<path fill-rule="evenodd" clip-rule="evenodd" d="M0.898743 15.1C3.04032 6.3833 10.77 0.264648 19.6401 0.264648C28.5102 0.264648 36.2398 6.3833 38.3814 15.1H36.6886C33.8328 15.0574 31.0356 15.9216 28.6898 17.5714C28.5544 17.6707 28.4131 17.7613 28.2666 17.8428H28.0691C27.9226 17.7613 27.7813 17.6707 27.6459 17.5714C22.805 14.275 16.4751 14.275 11.6343 17.5714C11.4989 17.6707 11.3575 17.7613 11.2111 17.8428H11.0136C10.8671 17.7613 10.7257 17.6707 10.5903 17.5714C8.24452 15.9216 5.44733 15.0574 2.5916 15.1H0.898743ZM33.6414 24.0571C34.5104 23.3718 35.5875 23.0132 36.6885 23.0428H38.9598V18.4571H36.6885C34.7491 18.4333 32.854 19.0446 31.2855 20.2C29.4736 21.5526 27.0031 21.5526 25.1912 20.2C21.8972 17.8779 17.5239 17.8779 14.23 20.2C12.4181 21.5526 9.94752 21.5526 8.13567 20.2C6.54777 19.0299 4.62552 18.4178 2.6621 18.4571H0.320312V23.0428H2.59156C3.69264 23.0132 4.76969 23.3718 5.63871 24.0571C8.927 26.3808 13.2976 26.3808 16.5858 24.0571C17.456 23.3739 18.5323 23.0156 19.633 23.0428C20.7344 23.0109 21.8122 23.3696 22.6801 24.0571C25.9741 26.3791 30.3474 26.3791 33.6414 24.0571ZM36.6885 31.2428C35.5875 31.2132 34.5104 31.5718 33.6414 32.2571C30.3474 34.5791 25.9741 34.5791 22.6801 32.2571C21.8122 31.5696 20.7344 31.2108 19.633 31.2428C18.5323 31.2156 17.456 31.5739 16.5858 32.2571C13.2976 34.5808 8.927 34.5808 5.63871 32.2571C4.76969 31.5718 3.69264 31.2132 2.59156 31.2428H0.320312V26.6571H2.6621C4.62552 26.6178 6.54777 27.2299 8.13567 28.4C9.94752 29.7526 12.4181 29.7526 14.23 28.4C17.5239 26.0779 21.8972 26.0779 25.1912 28.4C27.0031 29.7526 29.4736 29.7526 31.2855 28.4C32.854 27.2446 34.7491 26.6333 36.6885 26.6571H38.9598V31.2428H36.6885Z" fill="#FFD2DD"/>
</svg>
