<svg width="22" height="18" viewBox="0 0 22 18" fill="none" xmlns="http://www.w3.org/2000/svg">
<path d="M21.937 2.11613C21.1291 2.475 20.2682 2.71288 19.3707 2.82838C20.294 2.27013 20.9987 1.39287 21.33 0.3355C20.4692 0.85525 19.5187 1.22238 18.5058 1.42725C17.6883 0.545875 16.5233 0 15.2524 0C12.7866 0 10.8015 2.02675 10.8015 4.51137C10.8015 4.86888 10.8314 5.21263 10.9047 5.53988C7.20194 5.357 3.92554 3.55988 1.72452 0.82225C1.34026 1.49738 1.11486 2.27012 1.11486 3.102C1.11486 4.664 1.90918 6.04862 3.0932 6.85025C2.37763 6.8365 1.67564 6.62613 1.08092 6.29475C1.08092 6.3085 1.08092 6.32638 1.08092 6.34425C1.08092 8.536 2.62475 10.3565 4.64925 10.7759C4.28672 10.8763 3.89159 10.9244 3.48153 10.9244C3.19639 10.9244 2.90853 10.9079 2.63833 10.8474C3.2154 12.6335 4.85293 13.9466 6.80003 13.9893C5.28471 15.1896 3.36069 15.9129 1.2778 15.9129C0.912547 15.9129 0.56223 15.8964 0.211914 15.851C2.18482 17.1394 4.52298 17.875 7.04444 17.875C15.2402 17.875 19.721 11 19.721 5.04075C19.721 4.84137 19.7142 4.64887 19.7047 4.45775C20.5886 3.8225 21.3314 3.02913 21.937 2.11613Z" fill="white"/>
</svg>
