<svg width="23" height="22" viewBox="0 0 23 22" fill="none" xmlns="http://www.w3.org/2000/svg">
<path fill-rule="evenodd" clip-rule="evenodd" d="M7.22655 0H15.3734C19.1223 0 22.1625 3.07862 22.1625 6.875V15.125C22.1625 18.9214 19.1223 22 15.3734 22H7.22655C3.47764 22 0.4375 18.9214 0.4375 15.125V6.875C0.4375 3.07862 3.47764 0 7.22655 0ZM15.3735 19.9375C17.994 19.9375 20.1258 17.7787 20.1258 15.125V6.875C20.1258 4.22125 17.994 2.0625 15.3735 2.0625H7.22658C4.60601 2.0625 2.47424 4.22125 2.47424 6.875V15.125C2.47424 17.7787 4.60601 19.9375 7.22658 19.9375H15.3735Z" fill="white"/>
<path fill-rule="evenodd" clip-rule="evenodd" d="M5.86914 11C5.86914 7.96263 8.30098 5.5 11.3004 5.5C14.2998 5.5 16.7316 7.96263 16.7316 11C16.7316 14.0374 14.2998 16.5 11.3004 16.5C8.30098 16.5 5.86914 14.0374 5.86914 11ZM7.90582 11C7.90582 12.8948 9.42929 14.4375 11.3004 14.4375C13.1714 14.4375 14.6949 12.8948 14.6949 11C14.6949 9.10388 13.1714 7.5625 11.3004 7.5625C9.42929 7.5625 7.90582 9.10388 7.90582 11Z" fill="white"/>
<ellipse cx="17.1388" cy="5.08737" rx="0.723724" ry="0.73288" fill="white"/>
</svg>
