<?xml version="1.0" standalone="no"?>
<!DOCTYPE svg PUBLIC "-//W3C//DTD SVG 20010904//EN"
 "http://www.w3.org/TR/2001/REC-SVG-20010904/DTD/svg10.dtd">
<svg version="1.0" xmlns="http://www.w3.org/2000/svg"
 width="200.000000pt" height="200.000000pt" viewBox="0 0 200.000000 200.000000"
 preserveAspectRatio="xMidYMid meet">

<g transform="translate(0.000000,200.000000) scale(0.100000,-0.100000)"
fill="#000000" stroke="none">
<path d="M610 1369 c-19 -4 -79 -14 -133 -24 -53 -9 -95 -20 -93 -24 3 -4 49
-18 103 -30 87 -21 101 -27 116 -53 16 -27 15 -35 -19 -175 -19 -80 -32 -148
-30 -150 5 -6 14 26 52 189 35 152 42 155 188 111 10 -3 16 -1 13 5 -4 5 -33
15 -66 22 -67 14 -92 39 -84 82 8 41 -6 56 -47 47z m40 -26 c0 -24 -10 -38
-38 -52 -20 -10 -37 -10 -95 5 -40 9 -76 19 -82 23 -5 3 31 13 80 22 121 23
135 23 135 2z"/>
<path d="M213 1070 c-11 -61 -16 -107 -12 -103 4 4 15 46 23 92 9 47 19 87 21
90 3 2 20 -10 38 -27 51 -49 57 -38 7 13 -24 25 -47 45 -50 45 -4 0 -16 -50
-27 -110z"/>
<path d="M744 1095 c-37 -41 -75 -75 -83 -75 -29 0 -61 -30 -61 -57 0 -15 -7
-35 -17 -45 -16 -18 -5 -26 13 -8 11 11 84 2 84 -11 0 -5 -18 -9 -40 -9 -33 0
-40 -3 -40 -20 0 -24 40 -29 108 -14 20 4 23 10 20 46 -3 38 -6 43 -38 52
l-35 10 38 4 c34 3 37 6 31 25 -4 12 -11 25 -17 29 -6 4 19 36 58 77 38 39 63
71 57 71 -6 0 -41 -34 -78 -75z"/>
<path d="M400 1005 c13 -14 26 -23 28 -20 7 7 -29 45 -41 45 -6 0 0 -11 13
-25z"/>
<path d="M760 1015 c-1 -3 -1 -40 -2 -82 l0 -78 61 -3 c56 -3 61 -1 61 18 0
16 -6 20 -35 20 -19 0 -35 5 -35 10 0 6 11 10 25 10 18 0 25 5 25 20 0 15 -7
20 -25 20 -14 0 -25 5 -25 10 0 6 16 10 35 10 31 0 35 3 35 25 0 24 -3 25 -60
25 -33 0 -60 -2 -60 -5z"/>
<path d="M910 935 c0 -84 0 -85 25 -85 20 0 25 5 25 25 0 18 5 25 20 25 15 0
20 -7 20 -25 0 -20 5 -25 25 -25 22 0 25 4 25 39 0 22 -4 42 -8 45 -5 3 -7 19
-4 35 4 26 0 32 -23 41 -14 5 -44 10 -66 10 l-39 0 0 -85z m78 23 c-6 -18 -28
-21 -28 -4 0 9 7 16 16 16 9 0 14 -5 12 -12z"/>
<path d="M1080 970 c0 -28 7 -66 14 -85 14 -32 19 -35 54 -35 37 0 40 2 56 44
10 25 16 62 14 83 -2 31 -7 39 -25 41 -20 3 -23 -1 -23 -32 0 -40 -17 -92 -28
-82 -3 4 -9 31 -12 59 -4 44 -8 52 -27 55 -21 3 -23 0 -23 -48z"/>
<path d="M1244 1006 c-7 -19 3 -36 22 -36 9 0 14 -11 14 -36 0 -27 -5 -37 -20
-41 -11 -3 -20 -14 -20 -24 0 -17 8 -19 60 -19 53 0 60 2 60 20 0 11 -7 20
-15 20 -11 0 -15 11 -15 40 0 30 4 40 16 40 10 0 14 7 12 23 -3 19 -10 22 -56
25 -39 2 -54 -1 -58 -12z"/>
<path d="M1413 1010 c-26 -10 -39 -62 -29 -114 7 -39 20 -46 82 -46 37 0 44 3
44 20 0 16 -7 20 -35 20 -34 0 -35 1 -35 39 0 37 2 40 33 43 24 2 32 8 32 23
0 16 -7 20 -35 22 -19 1 -45 -2 -57 -7z"/>
<path d="M1537 1013 c-4 -3 -7 -42 -7 -85 l0 -79 28 3 c19 2 28 9 30 26 2 14
10 22 23 22 14 0 19 7 19 25 0 18 -5 25 -20 25 -11 0 -20 5 -20 10 0 6 14 10
30 10 25 0 30 4 30 25 0 24 -3 25 -53 25 -30 0 -57 -3 -60 -7z"/>
<path d="M1677 1013 c-14 -13 -7 -65 12 -91 10 -15 20 -36 22 -47 3 -13 14
-21 32 -23 22 -3 27 1 27 18 0 12 9 33 20 47 12 16 20 41 20 65 0 35 -2 39
-22 36 -17 -2 -24 -11 -26 -33 -7 -61 -42 -55 -42 8 0 19 -5 27 -18 27 -10 0
-22 -3 -25 -7z"/>
<path d="M450 964 c0 -6 16 -25 35 -44 19 -19 35 -29 35 -24 0 6 -16 25 -35
44 -19 19 -35 29 -35 24z"/>
</g>
</svg>
